<svg xmlns="http://www.w3.org/2000/svg" viewBox="0 0 256 256" role="img" aria-label="Ashh logo mark">
  <defs>
    <linearGradient id="gold" x1="0" y1="0" x2="1" y2="1">
      <stop offset="0%" stop-color="#fff3cf"/>
      <stop offset="45%" stop-color="#d4af37"/>
      <stop offset="100%" stop-color="#7d5b22"/>
    </linearGradient>
  </defs>
  <circle cx="128" cy="128" r="116" fill="none" stroke="#c9a96e" stroke-width="6"/>
  <circle cx="128" cy="128" r="102" fill="none" stroke="url(#gold)" stroke-width="3"/>
  <path d="M52 126c50-22 102-22 152 0" fill="none" stroke="#9f7b3f" stroke-width="2" opacity="0.75"/>
  <path d="M52 130c50 22 102 22 152 0" fill="none" stroke="#9f7b3f" stroke-width="2" opacity="0.75"/>
  <polygon points="128,22 134,38 152,39 138,50 143,67 128,58 113,67 118,50 104,39 122,38" fill="#f0dcaf"/>
  <polygon points="93,30 98,44 113,45 102,54 106,69 93,61 80,69 84,54 73,45 88,44" fill="#d2b273"/>
  <polygon points="163,30 168,44 183,45 172,54 176,69 163,61 150,69 154,54 143,45 158,44" fill="#d2b273"/>
  <text x="128" y="160" text-anchor="middle" font-family="Cinzel, serif" font-size="104" font-weight="700" fill="url(#gold)">A</text>
  <circle cx="95" cy="192" r="4" fill="#c9a96e"/>
  <circle cx="111" cy="197" r="4" fill="#c9a96e"/>
  <circle cx="128" cy="200" r="4" fill="#c9a96e"/>
  <circle cx="145" cy="197" r="4" fill="#c9a96e"/>
  <circle cx="161" cy="192" r="4" fill="#c9a96e"/>
</svg>
